<svg id="Layer_1" enable-background="new 0 0 500 500" fill="white" viewBox="0 0 500 500" xmlns="http://www.w3.org/2000/svg"><g id="_x32_0_1_"><path d="m81.109 120.256c-1.861-3.897-6.532-5.557-10.432-3.701l-34.18 16.277c-3.476.798-6.075 3.893-6.075 7.612v39.126c0 4.323 3.503 7.825 7.827 7.825 4.323 0 7.825-3.502 7.825-7.825v-26.954l24.603 11.716c1.086.518 2.231.762 3.358.762 2.926 0 5.73-1.648 7.074-4.464 1.855-3.902.2-8.571-3.702-10.43l-20.491-9.757 20.491-9.757c3.903-1.858 5.557-6.527 3.702-10.43z"/><path d="m120.925 109.125c1.129 0 2.272-.244 3.361-.762l46.877-22.321c3.902-1.86 5.56-6.53 3.702-10.432-1.857-3.897-6.525-5.556-10.432-3.701l-46.879 22.323c-3.902 1.859-5.557 6.527-3.701 10.43 1.343 2.814 4.147 4.463 7.072 4.463z"/><path d="m218.041 63.716 23.984-11.423v27.28c0 4.322 3.503 7.825 7.825 7.825 4.323 0 7.825-3.503 7.825-7.825v-27.422l24.286 11.565c1.089.517 2.232.762 3.361.762 2.924 0 5.729-1.648 7.071-4.464 1.857-3.902.202-8.571-3.701-10.43l-35.327-16.824c-2.13-1.014-4.6-1.014-6.73 0l-35.325 16.824c-3.902 1.859-5.558 6.527-3.701 10.43 1.861 3.905 6.539 5.566 10.432 3.702z"/><path d="m328.842 86.039 46.879 22.324c1.084.518 2.231.762 3.36.762 2.924 0 5.729-1.648 7.071-4.464 1.856-3.902.202-8.571-3.701-10.43l-46.88-22.325c-3.897-1.856-8.568-.199-10.43 3.701-1.858 3.902-.202 8.571 3.701 10.432z"/><path d="m388.505 183.77c3.902-1.858 5.558-6.527 3.7-10.43-1.857-3.9-6.53-5.56-10.43-3.698l-30.036 14.307-94.064-44.794v-34.882c0-4.325-3.502-7.825-7.825-7.825-4.322 0-7.825 3.501-7.825 7.825v35.024l-93.757 44.648-26.941-12.83c-3.911-1.859-8.571-.201-10.432 3.702-1.857 3.902-.201 8.572 3.701 10.431l29.142 13.878v101.747l-29.616 14.103c-3.902 1.859-5.557 6.527-3.701 10.431 1.342 2.815 4.146 4.463 7.071 4.463 1.129 0 2.275-.244 3.36-.762l27.417-13.056 93.756 44.648v26.671c0 4.324 3.503 7.825 7.825 7.825 4.323 0 7.825-3.502 7.825-7.825v-26.527l94.058-44.791 28.487 13.566c1.088.517 2.232.762 3.36.762 2.924 0 5.729-1.648 7.071-4.464 1.858-3.902.201-8.571-3.701-10.431l-30.685-14.612v-101.748zm-47.89 120.24-82.939 39.496v-97.434l82.939-39.498zm-180.735-2.154c-.139-.292-.323-.544-.492-.81v-94.471l82.637 39.353v97.436l-81.433-38.779c-.075-.921-.292-1.846-.712-2.729zm90.121-149.019 83.529 39.777-83.529 39.775-83.529-39.775z"/><path d="m375.717 391.637-46.878 22.324c-3.902 1.86-5.56 6.529-3.702 10.428 1.343 2.817 4.148 4.463 7.072 4.463 1.128 0 2.275-.244 3.36-.758l46.879-22.325c3.902-1.859 5.557-6.53 3.701-10.432-1.86-3.9-6.533-5.55-10.432-3.7z"/><path d="m281.962 436.286-24.286 11.566v-31.184c0-4.322-3.502-7.825-7.825-7.825-4.322 0-7.825 3.503-7.825 7.825v31.042l-23.984-11.424c-3.906-1.85-8.571-.2-10.432 3.703-1.857 3.902-.202 8.569 3.701 10.428l35.327 16.822c1.064.505 2.214.759 3.365.759s2.301-.254 3.365-.759l35.327-16.822c3.902-1.859 5.558-6.526 3.701-10.428-1.861-3.903-6.535-5.549-10.434-3.703z"/><path d="m171.161 413.961-46.879-22.324c-3.893-1.855-8.568-.203-10.431 3.699-1.856 3.902-.201 8.573 3.701 10.432l46.88 22.325c1.084.514 2.231.758 3.359.758 2.924 0 5.729-1.646 7.071-4.463 1.857-3.898.201-8.567-3.701-10.427z"/><path d="m81.109 339.367c-1.861-3.9-6.532-5.552-10.432-3.7l-24.603 11.714v-29.289c0-4.322-3.502-7.825-7.825-7.825-4.324 0-7.827 3.503-7.827 7.825v39.127c0 .978.201 1.903.53 2.766.159 2.843 1.806 5.401 4.398 6.637l35.327 16.824c1.086.515 2.231.761 3.358.761 2.926 0 5.73-1.648 7.074-4.463 1.855-3.902.2-8.571-3.702-10.432l-20.491-9.755 20.491-9.757c3.903-1.86 5.557-6.531 3.702-10.433z"/><path d="m38.249 279.745c4.323 0 7.825-3.502 7.825-7.827v-46.172c0-4.322-3.502-7.825-7.825-7.825-4.324 0-7.827 3.503-7.827 7.825v46.172c.001 4.325 3.504 7.827 7.827 7.827z"/><path d="m463.505 132.832-34.18-16.277c-3.908-1.861-8.571-.199-10.431 3.701-1.856 3.904-.201 8.572 3.701 10.432l20.491 9.757-20.491 9.757c-3.902 1.859-5.557 6.527-3.701 10.43 1.342 2.816 4.147 4.464 7.071 4.464 1.129 0 2.276-.244 3.36-.762l24.603-11.716v26.954c0 4.323 3.502 7.825 7.825 7.825s7.824-3.502 7.824-7.825v-39.126c0-3.721-2.596-6.816-6.072-7.614z"/><path d="m461.753 217.918c-4.324 0-7.825 3.503-7.825 7.825v46.172c0 4.325 3.502 7.825 7.825 7.825s7.824-3.501 7.824-7.825v-46.172c0-4.322-3.5-7.825-7.824-7.825z"/><path d="m461.753 310.266c-4.324 0-7.825 3.503-7.825 7.825v29.289l-24.603-11.714c-3.908-1.855-8.571-.202-10.431 3.7-1.856 3.902-.201 8.573 3.701 10.432l20.491 9.757-20.491 9.755c-3.902 1.861-5.557 6.53-3.701 10.432 1.342 2.815 4.147 4.463 7.071 4.463 1.129 0 2.276-.246 3.36-.761l35.327-16.824c2.592-1.236 4.239-3.794 4.398-6.637.328-.863.527-1.788.527-2.766v-39.127c0-4.321-3.5-7.824-7.824-7.824z"/></g></svg>