<svg version="1.1" id="Layer_1" xmlns="http://www.w3.org/2000/svg" xmlns:xlink="http://www.w3.org/1999/xlink" x="0px" y="0px"
	 width="100%" viewBox="0 0 216 216" enable-background="new 0 0 216 216" xml:space="preserve">
<path fill="#734BE0" opacity="1.000000" stroke="none" 
	d="
M55.000000,1.000000 
	C90.354225,1.000000 125.708458,1.000000 161.714386,1.335925 
	C164.465317,2.154471 166.591721,2.542183 168.659515,3.134521 
	C187.516159,8.536175 201.707092,19.598787 209.995148,37.805458 
	C205.203140,43.506165 207.109070,47.982639 214.963165,50.309349 
	C215.128311,51.059978 215.166351,51.501465 214.942596,52.168655 
	C213.252609,54.007023 211.482468,55.430786 210.465942,57.270874 
	C208.205429,61.362843 204.885529,61.562160 201.061630,60.403992 
	C197.258377,59.252075 193.430862,58.135113 189.727066,56.709141 
	C181.751678,53.638588 174.495026,56.245480 167.069138,58.932613 
	C159.807129,61.560448 152.458389,64.158661 144.933609,65.769890 
	C140.568466,66.704567 136.246902,66.166260 135.437027,72.152466 
	C135.285660,73.271416 133.342606,74.110771 132.303726,75.156044 
	C130.922913,76.545395 129.382889,77.856560 128.326767,79.472809 
	C125.690720,83.506989 120.602509,84.462372 117.644417,80.518181 
	C113.608330,75.136642 108.128860,72.640694 102.330307,69.952705 
	C97.121620,67.538147 92.780556,67.729362 88.391792,71.091232 
	C85.552086,73.266510 83.067871,74.752968 80.007950,70.978943 
	C78.904335,69.617775 75.763603,68.640068 74.145416,69.200233 
	C69.135094,70.934601 64.465042,69.809151 59.872715,68.374702 
	C58.057365,67.807663 55.838238,65.978195 55.343258,64.275726 
	C54.339672,60.823898 54.248329,57.075062 54.028328,53.433720 
	C53.549335,45.505611 49.786068,43.527348 42.916740,47.716797 
	C37.366882,51.101524 23.002943,49.650349 18.274199,45.205872 
	C17.926077,44.878681 17.431181,44.351967 17.490549,43.999996 
	C18.453325,38.292034 14.754001,32.196140 19.295002,26.657850 
	C20.469841,25.224993 19.891644,22.354767 20.129536,20.054600 
	C20.140377,19.964411 20.322046,19.962599 20.769382,20.176712 
	C30.034689,22.020693 31.808367,20.372000 31.069241,11.222342 
	C35.565372,8.918422 39.756397,6.680237 44.108891,4.819808 
	C47.638607,3.311067 51.362328,2.256183 55.000000,1.000000 
z"/>
<path fill="#653CDC" opacity="1.000000" stroke="none" 
	d="
M162.000000,217.000000 
	C126.645775,217.000000 91.291542,217.000000 55.308434,216.659164 
	C54.048012,216.121277 53.424850,215.890259 52.783726,215.732040 
	C26.095358,209.146469 9.250623,192.627350 2.444807,165.932526 
	C2.181413,164.899399 1.491284,163.975037 1.000000,163.000000 
	C1.000000,161.611115 1.000000,160.222214 1.468654,158.414459 
	C9.159422,157.986069 16.383877,158.073700 23.602034,157.899826 
	C25.444057,157.855453 27.266121,156.982391 29.426502,156.608795 
	C30.176697,156.926010 30.597740,157.124496 31.235840,157.626740 
	C33.336899,158.286011 35.217999,158.932114 37.105370,158.950989 
	C51.829880,159.098297 66.555595,159.125031 81.236710,159.452576 
	C82.423363,160.449768 83.654251,161.183411 85.237801,162.138000 
	C88.739380,162.603500 91.888290,162.848068 95.036690,163.286957 
	C95.036171,163.481293 95.038811,163.869934 94.622681,163.897186 
	C92.168152,164.619110 90.129738,165.313797 87.890976,166.205627 
	C87.478333,166.912994 87.266037,167.423248 86.772881,168.028900 
	C85.780525,168.524887 85.069031,168.925446 83.225189,169.963501 
	C85.376419,169.963501 86.177071,169.963501 87.299606,170.178925 
	C90.111237,170.216599 92.600975,170.038849 95.530869,169.884735 
	C98.328041,169.976151 100.685043,170.043915 103.395111,170.318741 
	C110.495300,170.355988 117.242432,170.186188 124.176910,169.991211 
	C124.364243,169.966034 124.742271,169.967041 125.138580,169.970245 
	C125.799057,169.968643 126.063232,169.963852 126.479286,169.942764 
	C126.631165,169.926483 126.934700,169.960953 127.105789,170.118866 
	C127.827675,170.142654 128.378464,170.008530 128.948502,169.542572 
	C128.622849,167.782730 128.277954,166.354691 127.675774,164.747040 
	C126.607697,164.378418 125.796890,164.189392 124.982849,163.715637 
	C124.961456,163.054565 124.943306,162.678223 125.387581,162.248047 
	C129.900360,161.759277 133.950699,161.324310 137.902191,160.581665 
	C137.096329,159.385376 136.389328,158.496780 135.512970,157.395340 
	C145.655426,157.395340 155.263428,157.475922 164.869370,157.370834 
	C173.132233,157.280441 181.392792,156.978195 189.985199,156.847809 
	C190.540955,156.954117 190.765839,156.982224 191.338623,157.234711 
	C200.124359,157.639404 208.562180,157.819687 217.000000,158.000000 
	C217.000000,159.388885 217.000000,160.777786 216.656830,162.739700 
	C216.026932,164.263779 215.705292,165.205887 215.458572,166.167206 
	C208.613144,192.841339 191.701859,209.268280 165.018494,215.780853 
	C163.975281,216.035477 163.004517,216.586884 162.000000,217.000000 
M174.645691,166.102417 
	C172.284241,166.102417 169.922806,166.102417 167.561356,166.102417 
	C167.513901,166.639999 167.466461,167.177582 167.419022,167.715164 
	C169.864700,168.056427 172.307388,168.435043 174.764618,168.632141 
	C174.891815,168.642349 175.143417,167.101578 174.645691,166.102417 
z"/>
<path fill="#7649E2" opacity="1.000000" stroke="none" 
	d="
M20.118694,20.144791 
	C19.891644,22.354767 20.469841,25.224993 19.295002,26.657850 
	C14.754001,32.196140 18.453325,38.292034 17.490549,43.999996 
	C17.431181,44.351967 17.926077,44.878681 18.274199,45.205872 
	C23.002943,49.650349 37.366882,51.101524 42.916740,47.716797 
	C49.786068,43.527348 53.549335,45.505611 54.028328,53.433720 
	C54.248329,57.075062 54.339672,60.823898 55.343258,64.275726 
	C55.838238,65.978195 58.057365,67.807663 59.872715,68.374702 
	C64.465042,69.809151 69.135094,70.934601 74.145416,69.200233 
	C75.763603,68.640068 78.904335,69.617775 80.007950,70.978943 
	C83.067871,74.752968 85.552086,73.266510 88.391792,71.091232 
	C92.780556,67.729362 97.121620,67.538147 102.330307,69.952705 
	C108.128860,72.640694 113.608330,75.136642 117.644417,80.518181 
	C120.602509,84.462372 125.690720,83.506989 128.326767,79.472809 
	C129.382889,77.856560 130.922913,76.545395 132.303726,75.156044 
	C133.342606,74.110771 135.285660,73.271416 135.437027,72.152466 
	C136.246902,66.166260 140.568466,66.704567 144.933609,65.769890 
	C152.458389,64.158661 159.807129,61.560448 167.069138,58.932613 
	C174.495026,56.245480 181.751678,53.638588 189.727066,56.709141 
	C193.430862,58.135113 197.258377,59.252075 201.061630,60.403992 
	C204.885529,61.562160 208.205429,61.362843 210.465942,57.270874 
	C211.482468,55.430786 213.252609,54.007023 215.137833,52.453434 
	C215.787674,53.647388 215.980484,54.782265 215.951996,56.194969 
	C216.153778,58.315193 216.576889,60.157597 217.000000,62.000000 
	C217.000000,62.750000 217.000000,63.500000 216.576645,64.625565 
	C210.435730,65.334084 204.718170,65.667046 198.816376,65.709007 
	C196.922028,63.253922 195.083206,61.033329 191.994476,62.790756 
	C188.814270,64.600235 186.666260,63.702801 184.887238,60.846066 
	C182.949493,57.734501 180.129730,57.538570 177.011444,58.602322 
	C172.059464,60.291618 169.539261,63.890846 168.575150,69.001694 
	C161.041840,71.036850 153.875488,72.898331 146.881958,75.269547 
	C145.717224,75.664459 144.550415,78.352318 144.697403,79.851936 
	C145.033096,83.277046 146.181976,86.622467 146.733582,90.234039 
	C142.977951,92.312119 139.489273,94.156395 135.680450,96.077438 
	C134.573746,97.102997 133.787186,98.051788 132.706573,99.119553 
	C131.222275,98.930016 129.521851,99.017662 128.924667,98.248619 
	C125.089607,93.309891 119.931755,92.482414 113.964783,92.775269 
	C108.881805,86.756752 104.063278,80.957909 98.334457,74.063576 
	C96.334816,77.606453 94.654686,80.583244 92.994339,83.537483 
	C93.014122,83.514931 93.028450,83.456665 92.661415,83.277985 
	C89.260796,86.091080 86.227211,89.082855 82.842773,91.909958 
	C80.435776,91.142769 78.374794,90.556206 76.324669,89.933891 
	C73.503754,89.077599 70.145546,88.874901 68.005394,87.159630 
	C64.957176,84.716530 62.304768,82.958046 58.187744,83.804291 
	C56.923969,84.064049 54.979553,82.958977 54.022900,81.879646 
	C53.595764,81.397736 55.066994,79.469658 55.266693,78.136490 
	C55.521969,76.432259 56.070305,74.156494 55.251991,73.020615 
	C52.646217,69.403595 49.465565,66.200737 46.601349,62.467979 
	C46.949535,60.226536 47.203373,58.354996 47.496979,56.190212 
	C45.837723,56.904240 44.500896,57.479519 42.737724,58.012024 
	C30.132923,54.219101 20.447920,61.188721 10.146070,65.479538 
	C9.721424,65.656403 9.318966,66.108185 9.104157,66.532196 
	C7.362863,69.969353 4.303060,70.254379 1.000000,70.000000 
	C1.000000,65.310745 1.000000,60.621487 1.337735,55.301018 
	C4.804641,41.548946 9.972733,29.517282 20.118694,20.144791 
z"/>
<path fill="#6539D5" opacity="1.000000" stroke="none" 
	d="
M1.000000,122.000000 
	C1.000000,114.312424 1.000000,106.624847 1.452202,98.479187 
	C5.429371,98.021194 8.954339,98.021286 12.565674,98.417313 
	C13.575869,101.461548 14.027946,104.411758 15.498759,106.710014 
	C26.470804,123.854652 43.191547,132.851730 62.222893,139.078918 
	C64.311768,139.895615 66.084778,140.547714 68.057053,141.468933 
	C71.199165,144.475021 74.142006,147.211960 76.635361,150.075989 
	C65.412506,153.456665 60.750111,144.445114 54.114571,138.485336 
	C52.484299,140.343277 51.007233,141.725067 49.894318,143.355453 
	C47.287762,147.173889 44.593094,147.552872 40.329155,145.355469 
	C28.145945,139.076904 16.583164,132.017899 6.242526,122.330521 
	C4.180032,122.169945 2.590016,122.084976 1.000000,122.000000 
z"/>
<path fill="#6337D5" opacity="1.000000" stroke="none" 
	d="
M217.000000,98.000000 
	C217.000000,102.689255 217.000000,107.378510 216.670517,112.655701 
	C214.829208,116.294647 213.317383,119.345642 211.546722,122.558105 
	C199.266403,134.936630 184.503143,142.814865 169.219772,149.840576 
	C167.062805,146.372696 165.145554,143.290222 163.000595,139.841644 
	C162.968582,139.886642 163.599838,138.999283 164.451324,138.089966 
	C164.671524,138.067993 165.031158,137.810898 165.283081,137.784836 
	C165.783340,137.539795 166.031693,137.320831 166.622742,137.043762 
	C175.006454,131.726105 183.441925,126.969391 190.974213,121.061218 
	C198.077332,115.489677 203.709427,108.373543 205.666656,98.785385 
	C209.681778,98.415222 213.340881,98.207611 217.000000,98.000000 
z"/>
<path fill="#FDFDFF" opacity="1.000000" stroke="none" 
	d="
M216.173309,55.917145 
	C215.980484,54.782265 215.787674,53.647388 215.399628,52.227734 
	C215.166351,51.501465 215.128311,51.059978 214.966080,49.938492 
	C213.301895,45.343376 211.761902,41.428261 210.221893,37.513145 
	C201.707092,19.598787 187.516159,8.536175 168.659515,3.134521 
	C166.591721,2.542183 164.465317,2.154471 162.183044,1.335925 
	C180.260117,1.000000 198.520233,1.000000 217.000000,1.000000 
	C217.000000,19.020300 217.000000,37.041492 216.797729,55.466515 
	C216.595474,55.870350 216.173294,55.917145 216.173309,55.917145 
z"/>
<path fill="#FDFDFF" opacity="1.000000" stroke="none" 
	d="
M20.129536,20.054600 
	C9.972733,29.517282 4.804641,41.548946 1.337735,54.834900 
	C1.000000,37.073223 1.000000,19.146444 1.000000,1.000000 
	C18.686954,1.000000 36.374821,1.000000 54.531342,1.000000 
	C51.362328,2.256183 47.638607,3.311067 44.108891,4.819808 
	C39.756397,6.680237 35.565372,8.918422 30.743870,11.367943 
	C26.896128,14.482551 23.609087,17.222574 20.322046,19.962599 
	C20.322046,19.962599 20.140377,19.964411 20.129536,20.054600 
z"/>
<path fill="#FDFCFF" opacity="1.000000" stroke="none" 
	d="
M162.468658,217.000000 
	C163.004517,216.586884 163.975281,216.035477 165.018494,215.780853 
	C191.701859,209.268280 208.613144,192.841339 215.458572,166.167206 
	C215.705292,165.205887 216.026932,164.263779 216.656830,163.156372 
	C217.000000,180.927444 217.000000,198.854904 217.000000,217.000000 
	C198.979691,217.000000 180.958496,217.000000 162.468658,217.000000 
z"/>
<path fill="#FDFCFF" opacity="1.000000" stroke="none" 
	d="
M1.000000,163.468658 
	C1.491284,163.975037 2.181413,164.899399 2.444807,165.932526 
	C9.250623,192.627350 26.095358,209.146469 52.783726,215.732040 
	C53.424850,215.890259 54.048012,216.121277 54.839775,216.659164 
	C37.073227,217.000000 19.146450,217.000000 1.000000,217.000000 
	C1.000000,199.313049 1.000000,181.625183 1.000000,163.468658 
z"/>
<path fill="#804AE9" opacity="1.000000" stroke="none" 
	d="
M217.000000,97.531349 
	C213.340881,98.207611 209.681778,98.415222 205.600601,98.349495 
	C203.078873,89.734879 200.979202,81.393608 199.190018,72.865234 
	C205.171112,68.257225 211.004059,68.025436 217.000000,72.000000 
	C217.000000,80.354233 217.000000,88.708466 217.000000,97.531349 
z"/>
<path fill="#814AE8" opacity="1.000000" stroke="none" 
	d="
M12.479305,98.021385 
	C8.954339,98.021286 5.429371,98.021194 1.452202,98.010551 
	C1.000000,89.979103 1.000000,81.958199 1.428213,73.467804 
	C7.339097,73.379799 12.821767,73.761284 18.269230,74.524330 
	C16.315784,82.611053 14.397545,90.316216 12.479305,98.021385 
z"/>
<path fill="#7745E4" opacity="1.000000" stroke="none" 
	d="
M18.304436,74.142776 
	C12.821767,73.761284 7.339097,73.379799 1.428213,72.999161 
	C1.000000,72.250000 1.000000,71.500000 1.000000,70.375000 
	C4.303060,70.254379 7.362863,69.969353 9.104157,66.532196 
	C9.318966,66.108185 9.721424,65.656403 10.146070,65.479538 
	C20.447920,61.188721 30.132923,54.219101 42.645874,58.346107 
	C39.643620,61.482227 36.306870,64.241486 32.689072,67.248825 
	C29.326880,68.001709 26.245729,68.506516 22.981621,68.777145 
	C21.300587,70.409569 19.802511,72.276169 18.304436,74.142776 
z"/>
<path fill="#532CB7" opacity="1.000000" stroke="none" 
	d="
M1.000000,157.000000 
	C1.000000,155.933212 1.000000,154.866425 1.358666,153.327271 
	C3.692343,151.182205 5.723910,149.570709 7.622687,147.815567 
	C8.910646,146.625046 10.012160,145.232819 11.466227,144.135162 
	C17.161734,148.257141 22.588074,152.174774 27.666536,156.314850 
	C18.545774,156.691513 9.772887,156.845749 1.000000,157.000000 
z"/>
<path fill="#4E28B3" opacity="1.000000" stroke="none" 
	d="
M217.000000,145.000000 
	C217.000000,148.362106 217.000000,151.724197 216.754196,155.556213 
	C216.508392,156.026138 216.016174,156.017776 215.879517,155.932373 
	C215.404449,155.769394 215.115555,155.868301 214.537476,156.185669 
	C213.517807,156.202942 212.836838,156.178268 211.819092,155.922607 
	C208.699966,155.959763 205.917633,156.227921 202.740982,156.573090 
	C200.545914,156.500656 198.745148,156.351227 196.958282,155.822815 
	C196.982056,154.690964 196.991943,153.938110 197.248169,152.945953 
	C200.604752,149.999832 203.714966,147.293045 207.125488,144.851196 
	C210.617203,145.077438 213.808609,145.038712 217.000000,145.000000 
z"/>
<path fill="#562FBC" opacity="1.000000" stroke="none" 
	d="
M217.000000,144.533875 
	C213.808609,145.038712 210.617203,145.077438 207.216675,144.518951 
	C208.629700,139.273605 210.251877,134.625458 212.301300,129.979950 
	C214.152344,129.988388 215.576172,129.994186 217.000000,130.000000 
	C217.000000,134.689255 217.000000,139.378510 217.000000,144.533875 
z"/>
<path fill="#542BBB" opacity="1.000000" stroke="none" 
	d="
M11.197058,143.930801 
	C10.012160,145.232819 8.910646,146.625046 7.622687,147.815567 
	C5.723910,149.570709 3.692343,151.182205 1.358666,152.927444 
	C1.000000,148.310745 1.000000,143.621490 1.397445,138.464539 
	C3.578789,137.645615 5.362688,137.294403 7.464563,137.068527 
	C8.920712,139.439514 10.058885,141.685150 11.197058,143.930801 
z"/>
<path fill="#7948E4" opacity="1.000000" stroke="none" 
	d="
M217.000000,71.562500 
	C211.004059,68.025436 205.171112,68.257225 198.985718,72.672592 
	C198.302170,72.141159 198.133377,71.615242 197.974762,70.713013 
	C198.323486,68.891136 198.662048,67.445564 199.000610,66.000000 
	C204.718170,65.667046 210.435730,65.334084 216.576645,65.000565 
	C217.000000,67.041664 217.000000,69.083336 217.000000,71.562500 
z"/>
<path fill="#5D33CC" opacity="1.000000" stroke="none" 
	d="
M217.000000,129.532379 
	C215.576172,129.994186 214.152344,129.988388 212.241821,129.558731 
	C211.771927,126.888802 211.788727,124.642723 211.805542,122.396637 
	C213.317383,119.345642 214.829208,116.294647 216.670517,113.121826 
	C217.000000,118.354927 217.000000,123.709862 217.000000,129.532379 
z"/>
<path fill="#5D31CB" opacity="1.000000" stroke="none" 
	d="
M1.000000,122.444168 
	C2.590016,122.084976 4.180032,122.169945 6.133988,122.713203 
	C6.597142,126.113518 6.696355,129.055542 6.480448,131.870743 
	C4.443551,131.162613 2.721776,130.581299 1.000000,130.000000 
	C1.000000,127.629440 1.000000,125.258888 1.000000,122.444168 
z"/>
<path fill="#5B32C4" opacity="1.000000" stroke="none" 
	d="
M1.000000,130.444168 
	C2.721776,130.581299 4.443551,131.162613 6.599506,132.271332 
	C7.071320,134.180237 7.108953,135.561707 7.146586,136.943192 
	C5.362688,137.294403 3.578789,137.645615 1.397445,137.998413 
	C1.000000,135.629440 1.000000,133.258896 1.000000,130.444168 
z"/>
<path fill="#7E56E3" opacity="1.000000" stroke="none" 
	d="
M216.016174,156.017776 
	C216.016174,156.017776 216.508392,156.026138 216.754196,156.013062 
	C217.000000,156.444443 217.000000,156.888901 217.000000,157.666656 
	C208.562180,157.819687 200.124359,157.639404 191.339813,157.236145 
	C190.993088,157.013168 190.984177,157.027908 191.189484,156.877838 
	C191.591873,156.454407 191.788940,156.181076 191.953583,155.925415 
	C191.921173,155.943085 191.886642,155.877823 192.117340,155.950378 
	C192.348053,156.022949 192.818527,156.126511 193.230286,156.165100 
	C194.742828,156.203064 195.843597,156.202423 196.944382,156.201797 
	C198.745148,156.351227 200.545914,156.500656 203.146820,156.669952 
	C206.683273,156.511063 209.419586,156.332336 212.155884,156.153595 
	C212.836838,156.178268 213.517807,156.202942 214.826080,156.178741 
	C215.640991,156.092484 215.828583,156.055130 216.016174,156.017776 
z"/>
<path fill="#8055E1" opacity="1.000000" stroke="none" 
	d="
M1.000000,157.250000 
	C9.772887,156.845749 18.545774,156.691513 27.871962,156.291046 
	C28.722816,156.082199 28.946846,156.230606 29.097351,156.490051 
	C27.266121,156.982391 25.444057,157.855453 23.602034,157.899826 
	C16.383877,158.073700 9.159422,157.986069 1.468654,157.997803 
	C1.000000,158.000000 1.000000,157.500000 1.000000,157.250000 
z"/>
<path fill="#7948E4" opacity="1.000000" stroke="none" 
	d="
M215.951981,56.194969 
	C216.173294,55.917145 216.595474,55.870350 216.797729,55.935173 
	C217.000000,57.714359 217.000000,59.428715 217.000000,61.571537 
	C216.576889,60.157597 216.153778,58.315193 215.951981,56.194969 
z"/>
<path fill="#7649E2" opacity="1.000000" stroke="none" 
	d="
M20.769382,20.176712 
	C23.609087,17.222574 26.896128,14.482551 30.508541,11.596924 
	C31.808367,20.372000 30.034689,22.020693 20.769382,20.176712 
z"/>
<path fill="#7649E2" opacity="1.000000" stroke="none" 
	d="
M209.995163,37.805458 
	C211.761902,41.428261 213.301895,45.343376 214.838989,49.629349 
	C207.109070,47.982639 205.203140,43.506165 209.995163,37.805458 
z"/>
<path fill="#F3F1F9" opacity="1.000000" stroke="none" 
	d="
M29.426502,156.608780 
	C28.946846,156.230606 28.722816,156.082199 28.219837,156.068619 
	C22.588074,152.174774 17.161734,148.257141 11.466227,144.135162 
	C10.058885,141.685150 8.920712,139.439514 7.464563,137.068527 
	C7.108953,135.561707 7.071320,134.180237 6.914628,132.398163 
	C6.696355,129.055542 6.597142,126.113518 6.606466,122.788803 
	C16.583164,132.017899 28.145945,139.076904 40.329155,145.355469 
	C44.593094,147.552872 47.287762,147.173889 49.894318,143.355453 
	C51.007233,141.725067 52.484299,140.343277 54.114571,138.485336 
	C60.750111,144.445114 65.412506,153.456665 76.960449,150.204956 
	C84.753670,153.517014 91.772316,156.827194 98.600594,160.318298 
	C97.878395,160.880875 97.346558,161.262543 96.368713,161.583618 
	C92.243515,161.654373 88.564331,161.785706 84.885147,161.917023 
	C83.654251,161.183411 82.423363,160.449768 81.596107,159.318512 
	C81.375854,158.428879 80.751953,157.936890 79.665512,157.317566 
	C65.099968,157.241608 50.996960,157.292984 36.475403,157.326630 
	C34.377499,157.313599 32.698143,157.318283 31.018787,157.322983 
	C30.597740,157.124496 30.176697,156.926010 29.426502,156.608780 
z"/>
<path fill="#F3F0F9" opacity="1.000000" stroke="none" 
	d="
M211.546722,122.558105 
	C211.788727,124.642723 211.771927,126.888802 211.814590,129.556091 
	C210.251877,134.625458 208.629700,139.273605 206.916351,144.253998 
	C203.714966,147.293045 200.604752,149.999832 196.933228,153.014221 
	C195.240723,153.939224 194.109512,154.556641 192.733093,155.177856 
	C192.116211,155.265717 191.915787,155.497772 191.886642,155.877823 
	C191.886642,155.877823 191.921173,155.943085 191.661865,155.893906 
	C191.226196,155.929153 191.049835,156.013565 190.625793,156.116165 
	C190.029114,156.223358 189.787872,156.435120 189.654358,156.769623 
	C181.392792,156.978195 173.132233,157.280441 164.869370,157.370834 
	C155.263428,157.475922 145.655426,157.395340 135.512970,157.395340 
	C136.389328,158.496780 137.096329,159.385376 137.433151,160.564987 
	C130.540573,160.660599 124.018166,160.465210 117.780075,160.077393 
	C123.089333,157.857330 128.114273,155.829681 133.410034,154.041718 
	C135.843689,154.888168 138.006516,155.494949 140.188202,156.107010 
	C140.843826,153.970413 141.351990,152.314346 142.123367,150.725830 
	C142.895325,150.663040 143.404068,150.532715 144.375336,150.403687 
	C146.802078,150.382889 148.766525,150.371902 150.730530,150.336548 
	C155.877213,150.243896 160.193024,146.250137 161.078568,140.463425 
	C162.154510,139.449875 163.192810,138.780899 164.231110,138.111923 
	C163.599838,138.999283 162.968582,139.886642 163.000595,139.841644 
	C165.145554,143.290222 167.062805,146.372696 169.219772,149.840576 
	C184.503143,142.814865 199.266403,134.936630 211.546722,122.558105 
z"/>
<path fill="#4C27AF" opacity="1.000000" stroke="none" 
	d="
M117.495750,160.269821 
	C124.018166,160.465210 130.540573,160.660599 137.532013,160.872681 
	C133.950699,161.324310 129.900360,161.759277 124.949028,162.196335 
	C115.059746,162.426971 106.071434,162.655518 97.025169,162.572113 
	C96.916382,162.054855 96.865555,161.849533 96.814728,161.644196 
	C97.346558,161.262543 97.878395,160.880875 99.055542,160.279831 
	C102.132706,160.043289 104.564560,160.026108 107.464378,160.015747 
	C111.120148,160.104965 114.307953,160.187393 117.495750,160.269821 
z"/>
<path fill="#4C22C1" opacity="1.000000" stroke="none" 
	d="
M124.986076,164.000366 
	C125.796890,164.189392 126.607697,164.378418 127.303223,164.761597 
	C126.441292,164.993423 125.694656,165.031097 124.588776,165.027908 
	C123.126823,165.308350 122.024117,165.629639 120.954987,165.947601 
	C120.988571,165.944275 120.942436,165.895020 120.479935,165.929840 
	C114.033974,165.984818 108.050507,166.004974 101.598412,166.019791 
	C96.783623,166.012451 92.437477,166.010468 88.091324,166.008484 
	C90.129738,165.313797 92.168152,164.619110 95.087006,163.927795 
	C105.640335,163.954224 115.313202,163.977295 124.986076,164.000366 
z"/>
<path fill="#5426C6" opacity="1.000000" stroke="none" 
	d="
M31.235840,157.626740 
	C32.698143,157.318283 34.377499,157.313599 36.853943,157.502274 
	C43.752514,157.804474 49.855019,158.040100 55.955223,157.990799 
	C64.013779,157.925690 72.070534,157.637299 80.128059,157.444885 
	C80.751953,157.936890 81.375854,158.428879 81.640350,159.054947 
	C66.555595,159.125031 51.829880,159.098297 37.105370,158.950989 
	C35.217999,158.932114 33.336899,158.286011 31.235840,157.626740 
z"/>
<path fill="#D4C9F1" opacity="1.000000" stroke="none" 
	d="
M103.042053,170.111679 
	C100.685043,170.043915 98.328041,169.976151 95.497726,169.671494 
	C95.024414,169.434586 94.994186,169.004044 95.126846,168.899872 
	C95.259499,168.795685 95.312820,168.462585 95.761444,168.458069 
	C103.842026,168.423538 111.473969,168.393509 119.278870,168.551788 
	C119.943161,168.879196 120.434517,169.018295 120.916313,169.333344 
	C120.906761,169.509277 120.866776,169.859375 120.408981,169.896729 
	C114.314812,169.993286 108.678429,170.052490 103.042053,170.111679 
z"/>
<path fill="#4B15CD" opacity="1.000000" stroke="none" 
	d="
M119.105919,168.363464 
	C111.473969,168.393509 103.842026,168.423538 95.315643,168.314011 
	C91.965393,168.094131 89.509567,168.013809 87.053749,167.933487 
	C87.266037,167.423248 87.478333,166.912994 87.890976,166.205627 
	C92.437477,166.010468 96.783623,166.012451 101.871857,166.334320 
	C105.032249,166.771835 107.462921,166.775330 109.865776,167.035614 
	C112.957489,167.370514 116.026901,167.911346 119.105919,168.363464 
z"/>
<path fill="#7153D6" opacity="1.000000" stroke="none" 
	d="
M124.982849,163.715637 
	C115.313202,163.977295 105.640335,163.954224 95.503136,163.900543 
	C95.038811,163.869934 95.036171,163.481293 95.377548,163.258331 
	C96.173660,162.984924 96.628395,162.934494 97.083130,162.884064 
	C106.071434,162.655518 115.059746,162.426971 124.486603,162.250153 
	C124.943306,162.678223 124.961456,163.054565 124.982849,163.715637 
z"/>
<path fill="#8C6ADE" opacity="1.000000" stroke="none" 
	d="
M120.866776,169.859375 
	C120.866776,169.859375 120.906761,169.509277 120.932518,168.925629 
	C120.952995,167.526321 120.947716,166.710663 120.942436,165.895020 
	C120.942436,165.895020 120.988571,165.944275 121.312233,165.958344 
	C122.739937,165.671188 123.843971,165.369980 124.948013,165.068756 
	C125.694656,165.031097 126.441292,164.993423 127.560486,164.941193 
	C128.277954,166.354691 128.622849,167.782730 128.616501,169.555374 
	C127.821732,169.920303 127.378212,169.940628 126.934700,169.960938 
	C126.934700,169.960953 126.631165,169.926483 126.291931,169.813568 
	C125.549225,169.789444 125.145752,169.878235 124.742271,169.967041 
	C124.742271,169.967041 124.364243,169.966034 123.786346,169.976044 
	C122.427887,169.943832 121.647331,169.901596 120.866776,169.859375 
z"/>
<path fill="#7D4CED" opacity="1.000000" stroke="none" 
	d="
M174.991394,166.192657 
	C175.143417,167.101578 174.891815,168.642349 174.764618,168.632141 
	C172.307388,168.435043 169.864700,168.056427 167.419022,167.715164 
	C167.466461,167.177582 167.513901,166.639999 167.561356,166.102417 
	C169.922806,166.102417 172.284241,166.102417 174.991394,166.192657 
z"/>
<path fill="#5726CF" opacity="1.000000" stroke="none" 
	d="
M120.408981,169.896729 
	C121.647331,169.901596 122.427887,169.943832 123.599007,170.001221 
	C117.242432,170.186188 110.495300,170.355988 103.395111,170.318741 
	C108.678429,170.052490 114.314812,169.993286 120.408981,169.896729 
z"/>
<path fill="#5726CF" opacity="1.000000" stroke="none" 
	d="
M94.994186,169.004044 
	C94.994186,169.004044 95.024414,169.434586 95.057564,169.647827 
	C92.600975,170.038849 90.111237,170.216599 87.612869,169.933411 
	C90.067558,169.316330 92.530869,169.160187 94.994186,169.004044 
z"/>
<path fill="#8C6ADE" opacity="1.000000" stroke="none" 
	d="
M95.126846,168.899872 
	C92.530869,169.160187 90.067558,169.316330 87.290985,169.717987 
	C86.177071,169.963501 85.376419,169.963501 83.225189,169.963501 
	C85.069031,168.925446 85.780525,168.524887 86.772881,168.028900 
	C89.509567,168.013809 91.965393,168.094131 94.867020,168.318512 
	C95.312820,168.462585 95.259499,168.795685 95.126846,168.899872 
z"/>
<path fill="#5E3AC3" opacity="1.000000" stroke="none" 
	d="
M97.025169,162.572113 
	C96.628395,162.934494 96.173660,162.984924 95.378067,163.063995 
	C91.888290,162.848068 88.739380,162.603500 85.237808,162.137985 
	C88.564331,161.785706 92.243515,161.654373 96.368713,161.583618 
	C96.865555,161.849533 96.916382,162.054855 97.025169,162.572113 
z"/>
<path fill="#5726CF" opacity="1.000000" stroke="none" 
	d="
M127.105789,170.118866 
	C127.378212,169.940628 127.821732,169.920303 128.597244,169.887177 
	C128.378464,170.008530 127.827675,170.142654 127.105789,170.118866 
z"/>
<path fill="#5726CF" opacity="1.000000" stroke="none" 
	d="
M125.138580,169.970245 
	C125.145752,169.878235 125.549225,169.789444 126.140060,169.829849 
	C126.063232,169.963852 125.799057,169.968643 125.138580,169.970245 
z"/>
<path fill="#7E56E3" opacity="1.000000" stroke="none" 
	d="
M189.985199,156.847809 
	C189.787872,156.435120 190.029114,156.223358 190.653152,156.348465 
	C190.928207,156.562592 190.984177,157.027908 190.984177,157.027908 
	C190.984177,157.027908 190.993088,157.013168 190.991913,157.011749 
	C190.765839,156.982224 190.540955,156.954117 189.985199,156.847809 
z"/>
<path fill="#794AE3" opacity="1.000000" stroke="none" 
	d="
M46.507004,62.837879 
	C49.465565,66.200737 52.646217,69.403595 55.251991,73.020615 
	C56.070305,74.156494 55.521969,76.432259 55.266693,78.136490 
	C55.066994,79.469658 53.595764,81.397736 54.022900,81.879646 
	C54.979553,82.958977 56.923969,84.064049 58.187744,83.804291 
	C62.304768,82.958046 64.957176,84.716530 68.005394,87.159630 
	C70.145546,88.874901 73.503754,89.077599 76.324669,89.933891 
	C78.374794,90.556206 80.435776,91.142769 82.693863,92.222679 
	C79.628311,97.473778 76.360817,102.247475 72.775055,107.047745 
	C71.635262,107.725311 70.813751,108.376297 69.646973,108.977615 
	C66.708595,107.188568 63.658871,105.866394 61.612854,103.627129 
	C56.619930,98.162628 51.841743,99.678391 46.561234,102.931519 
	C43.545128,93.515343 40.220795,84.451767 43.144169,74.664825 
	C44.317101,70.738037 45.389076,66.781097 46.507004,62.837879 
z"/>
<path fill="#7A49E5" opacity="1.000000" stroke="none" 
	d="
M147.000534,90.000252 
	C146.181976,86.622467 145.033096,83.277046 144.697403,79.851936 
	C144.550415,78.352318 145.717224,75.664459 146.881958,75.269547 
	C153.875488,72.898331 161.041840,71.036850 168.825455,69.002029 
	C169.667480,68.999641 169.834351,68.999825 170.073120,69.358231 
	C171.466705,71.798241 172.788391,73.880028 174.450485,76.190933 
	C174.893829,78.598175 174.996780,80.776291 174.869736,83.174774 
	C174.790039,84.942207 174.940338,86.489258 175.062195,88.459518 
	C174.933807,90.271255 174.833847,91.659790 174.605103,93.227921 
	C174.322617,93.660973 174.195175,93.927017 174.124084,94.133125 
	C174.154175,94.060608 174.297943,94.123779 174.045593,94.248184 
	C173.505386,94.612061 173.217514,94.851540 172.540512,95.044708 
	C164.915375,91.402275 157.988907,94.323799 150.717468,95.819496 
	C149.287842,93.757576 148.144196,91.878914 147.000534,90.000252 
z"/>
<path fill="#F4F1FA" opacity="1.000000" stroke="none" 
	d="
M46.601349,62.467979 
	C45.389076,66.781097 44.317101,70.738037 43.144169,74.664825 
	C40.220795,84.451767 43.545128,93.515343 46.564751,103.347633 
	C46.973083,105.711441 47.125084,107.377373 46.962952,108.884033 
	C45.174168,108.138184 43.699512,107.551613 42.041328,106.789856 
	C41.600594,106.399391 41.343395,106.184120 41.014557,105.645081 
	C40.639954,105.011864 40.336979,104.702408 40.013554,104.061493 
	C34.946358,94.949303 32.227222,85.620842 33.046753,75.378677 
	C33.268620,72.605835 33.008835,69.794441 32.970119,67.000748 
	C36.306870,64.241486 39.643620,61.482227 43.072220,58.388882 
	C44.500896,57.479519 45.837723,56.904240 47.496979,56.190212 
	C47.203373,58.354996 46.949535,60.226536 46.601349,62.467979 
z"/>
<path fill="#814AF2" opacity="1.000000" stroke="none" 
	d="
M93.028450,83.456665 
	C93.028450,83.456665 93.014122,83.514931 93.367592,83.408577 
	C96.319313,83.564674 99.871674,82.845596 101.338791,84.271706 
	C105.931450,88.735992 109.737503,94.009514 114.035004,99.194687 
	C111.595253,101.950172 109.343658,104.493141 106.892090,107.195145 
	C106.463966,107.607048 106.235809,107.859917 106.002808,108.059151 
	C105.997955,108.005508 106.105247,107.995850 105.910751,108.199051 
	C105.508720,108.713463 105.301178,109.024681 104.999352,109.592484 
	C104.323456,110.251633 103.741844,110.654205 102.726898,111.043640 
	C98.452652,109.655167 94.611748,108.279839 90.828819,106.502022 
	C91.580215,101.726158 92.273621,97.352791 93.158157,92.660660 
	C94.326897,89.341003 96.493011,86.297180 93.028450,83.456665 
z"/>
<path fill="#F1EDF9" opacity="1.000000" stroke="none" 
	d="
M107.092064,107.036110 
	C109.343658,104.493141 111.595253,101.950172 114.035004,99.194687 
	C109.737503,94.009514 105.931450,88.735992 101.338791,84.271706 
	C99.871674,82.845596 96.319313,83.564674 93.347809,83.431129 
	C94.654686,80.583244 96.334816,77.606453 98.334457,74.063576 
	C104.063278,80.957909 108.881805,86.756752 114.095497,93.073441 
	C119.250252,99.585251 124.009842,105.579216 128.816803,111.779358 
	C128.997391,112.239037 129.077362,112.508331 128.966431,113.075584 
	C128.545975,113.918373 128.263184,114.479004 127.592476,114.971092 
	C124.467552,114.080658 121.730537,113.258774 119.335449,112.539566 
	C113.333214,113.526314 107.325096,114.514023 100.077271,115.705544 
	C101.614265,113.387924 102.387245,112.222343 103.160233,111.056770 
	C103.741844,110.654205 104.323456,110.251633 105.244904,109.433540 
	C105.758240,108.677299 105.931747,108.336578 106.105255,107.995850 
	C106.105247,107.995850 105.997955,108.005508 106.259026,107.968216 
	C106.710754,107.632652 106.901405,107.334381 107.092064,107.036110 
M115.306114,108.395439 
	C115.459465,108.845390 115.612816,109.295349 115.766167,109.745308 
	C116.184952,109.574226 116.603737,109.403145 117.022514,109.232056 
	C116.606224,108.898888 116.189926,108.565720 115.306114,108.395439 
z"/>
<path fill="#7B49E3" opacity="1.000000" stroke="none" 
	d="
M128.769440,111.573181 
	C124.009842,105.579216 119.250252,99.585251 114.359955,93.293106 
	C119.931755,92.482414 125.089607,93.309891 128.924667,98.248619 
	C129.521851,99.017662 131.222275,98.930016 133.003876,99.247604 
	C137.387207,100.380333 136.950516,98.380074 136.000595,96.000671 
	C139.489273,94.156395 142.977951,92.312119 146.733582,90.234039 
	C148.144196,91.878914 149.287842,93.757576 150.472565,96.054718 
	C147.338623,98.310753 144.163620,100.148331 140.654602,102.051804 
	C139.226318,102.416725 138.132050,102.715759 136.705902,102.952652 
	C133.725113,102.290924 131.310287,101.942474 132.771851,106.261391 
	C131.273178,108.194344 130.021301,109.883759 128.769440,111.573181 
z"/>
<path fill="#F4F2FA" opacity="1.000000" stroke="none" 
	d="
M92.661415,83.277985 
	C96.493011,86.297180 94.326897,89.341003 92.855202,92.798065 
	C88.206558,97.168480 84.051987,101.082741 79.568321,105.120850 
	C77.190598,105.836845 75.141968,106.429008 73.093330,107.021172 
	C76.360817,102.247475 79.628311,97.473778 83.044716,92.387360 
	C86.227211,89.082855 89.260796,86.091080 92.661415,83.277985 
z"/>
<path fill="#7546E1" opacity="1.000000" stroke="none" 
	d="
M170.001221,69.000000 
	C169.834351,68.999825 169.667480,68.999641 169.250305,68.999123 
	C169.539261,63.890846 172.059464,60.291618 177.011444,58.602322 
	C180.129730,57.538570 182.949493,57.734501 184.887238,60.846066 
	C186.666260,63.702801 188.814270,64.600235 191.994476,62.790756 
	C195.083206,61.033329 196.922028,63.253922 198.816376,65.709000 
	C198.662048,67.445564 198.323486,68.891136 197.752380,70.496277 
	C196.747543,70.126915 195.975250,69.597977 194.909500,69.049362 
	C194.420395,69.017296 194.224747,69.004906 193.553574,68.996819 
	C190.144562,69.060440 187.211090,69.119751 184.074249,68.935318 
	C179.082825,61.024807 179.664932,58.424286 172.550125,68.108070 
	C172.365891,68.358826 172.271149,68.675308 171.779114,68.969131 
	C170.949448,68.984749 170.475327,68.992378 170.001221,69.000000 
z"/>
<path fill="#7A49E5" opacity="1.000000" stroke="none" 
	d="
M135.680450,96.077438 
	C136.950516,98.380074 137.387207,100.380333 133.297913,99.128639 
	C133.787186,98.051788 134.573746,97.102997 135.680450,96.077438 
z"/>
<path fill="#381695" opacity="1.000000" stroke="none" 
	d="
M106.996407,160.008942 
	C104.564560,160.026108 102.132706,160.043289 99.245911,160.098907 
	C91.772316,156.827194 84.753670,153.517014 77.409943,150.077881 
	C74.142006,147.211960 71.199165,144.475021 68.080902,141.099396 
	C67.934334,139.969864 67.963188,139.479004 68.371506,138.982010 
	C72.494011,136.640167 76.237053,134.304459 80.282921,131.856537 
	C81.089096,131.084991 81.592445,130.425674 82.480240,129.858185 
	C89.481850,131.252487 95.839546,133.124695 100.896835,138.417358 
	C102.631920,140.424973 104.250298,142.123947 105.956223,144.162079 
	C107.168594,145.468094 108.293442,146.434952 109.418274,147.401794 
	C110.325500,145.819611 111.232735,144.237427 112.386902,142.511215 
	C113.138603,141.804901 113.643364,141.242630 114.480049,140.745087 
	C117.784798,138.028595 120.717690,135.203156 123.740028,132.476837 
	C128.006516,128.628220 130.044342,128.910477 133.952423,133.206894 
	C134.900391,134.249069 136.684723,134.530487 138.150696,135.451202 
	C138.387543,136.491516 138.558182,137.242340 138.437805,138.122025 
	C137.656769,138.693130 137.169937,139.138931 136.676300,139.577103 
	C128.842743,146.530579 122.320671,155.455505 110.500137,156.362900 
	C109.246323,156.459137 108.160278,158.741013 106.996407,160.008942 
z"/>
<path fill="#F5F4FA" opacity="1.000000" stroke="none" 
	d="
M18.269230,74.524330 
	C19.802511,72.276169 21.300587,70.409569 22.923183,69.241516 
	C20.787561,88.534271 27.999226,103.671692 40.354004,117.277016 
	C43.975483,121.085876 47.458977,124.600189 51.097015,128.407928 
	C54.489151,131.461380 57.726746,134.221405 61.104309,137.221375 
	C61.465202,137.945648 61.686119,138.429993 61.907036,138.914352 
	C43.191547,132.851730 26.470804,123.854652 15.498759,106.710014 
	C14.027946,104.411758 13.575869,101.461548 12.565672,98.417313 
	C14.397545,90.316216 16.315784,82.611053 18.269230,74.524330 
z"/>
<path fill="#4727A5" opacity="1.000000" stroke="none" 
	d="
M62.222893,139.078918 
	C61.686119,138.429993 61.465202,137.945648 61.253578,136.955078 
	C61.868561,135.401276 62.474251,134.353683 63.343872,133.091583 
	C65.386238,131.210587 67.164673,129.544083 68.940002,128.296188 
	C68.621376,131.484055 68.305870,134.253311 67.991486,137.350128 
	C67.992424,138.114502 67.992233,138.551315 67.992043,138.988144 
	C67.963188,139.479004 67.934334,139.969864 67.881638,140.830261 
	C66.084778,140.547714 64.311768,139.895615 62.222893,139.078918 
z"/>
<path fill="#F5F3FA" opacity="1.000000" stroke="none" 
	d="
M195.202957,69.069038 
	C195.975250,69.597977 196.747543,70.126915 197.742218,70.872589 
	C198.133377,71.615242 198.302170,72.141159 198.675232,72.859703 
	C200.979202,81.393608 203.078873,89.734879 205.244598,98.512039 
	C203.709427,108.373543 198.077332,115.489677 190.974213,121.061218 
	C183.441925,126.969391 175.006454,131.726105 166.397400,137.128845 
	C165.536667,137.412201 165.270599,137.591827 165.031158,137.810898 
	C165.031158,137.810898 164.671524,138.067993 164.451324,138.089966 
	C163.192810,138.780899 162.154510,139.449875 160.674561,140.496796 
	C158.161285,141.225479 156.089630,141.576187 154.136780,141.616943 
	C156.891296,138.563889 159.527039,135.820786 162.457764,132.924164 
	C166.549667,128.875519 170.346588,124.980392 174.431061,120.993767 
	C175.512756,120.023369 176.306870,119.144478 177.345459,118.129288 
	C177.762604,117.669769 177.935257,117.346550 178.068787,117.027786 
	C178.029648,117.032249 178.039780,117.110382 178.272217,116.998016 
	C178.661621,116.589516 178.818604,116.293373 179.179901,115.859924 
	C179.633240,115.307861 179.882248,114.893105 180.389206,114.305351 
	C180.822052,113.764229 180.996933,113.396095 181.108749,113.040466 
	C181.045685,113.052963 181.072556,113.178734 181.307953,113.058731 
	C181.695328,112.630638 181.847336,112.322548 182.204773,111.864960 
	C182.649139,111.277740 182.888046,110.840012 183.365234,110.236755 
	C183.765594,109.727516 183.927689,109.383789 184.295395,108.899643 
	C184.710114,108.317200 184.919235,107.875191 185.362091,107.259018 
	C185.741592,106.732925 185.887390,106.380989 186.016602,106.014526 
	C186.000000,106.000000 186.034195,106.028831 186.215729,105.912079 
	C186.635971,105.596489 186.752045,105.341751 186.883163,104.857162 
	C187.020874,104.683212 187.103043,104.247162 187.362396,104.032021 
	C188.405869,102.208298 189.189972,100.599716 189.991867,98.991020 
	C190.009674,98.990906 189.984253,98.965408 190.196655,98.728745 
	C190.889648,97.323051 191.370239,96.154015 191.971634,94.787018 
	C192.230118,94.301483 192.279327,93.999504 192.479736,93.438393 
	C193.056564,92.122200 193.393738,91.050728 193.858215,89.673157 
	C194.037201,88.930077 194.088882,88.493080 194.329224,87.794083 
	C194.642075,86.691124 194.766251,85.850166 194.994385,84.691544 
	C195.104111,83.930679 195.109863,83.487480 195.271606,82.668472 
	C195.352722,77.884781 195.277847,73.476913 195.202957,69.069038 
z"/>
<path fill="#F3F0F9" opacity="1.000000" stroke="none" 
	d="
M165.283081,137.784836 
	C165.270599,137.591827 165.536667,137.412201 166.054718,137.186935 
	C166.031693,137.320831 165.783340,137.539795 165.283081,137.784836 
z"/>
<path fill="#673AD8" opacity="1.000000" stroke="none" 
	d="
M40.216022,116.982468 
	C27.999226,103.671692 20.787561,88.534271 23.106144,69.475700 
	C26.245729,68.506516 29.326880,68.001709 32.689072,67.248825 
	C33.008835,69.794441 33.268620,72.605835 33.046753,75.378677 
	C32.227222,85.620842 34.946358,94.949303 40.154388,104.347183 
	C40.572517,105.299164 40.829357,105.634003 41.086197,105.968842 
	C41.343395,106.184120 41.600594,106.399391 42.000538,106.962997 
	C42.143280,107.311317 42.090221,107.662994 42.200039,107.909569 
	C42.530029,108.438713 42.750202,108.721275 43.178818,109.163025 
	C43.628334,109.776558 43.869404,110.230911 44.066814,111.078621 
	C42.754108,113.308807 41.485065,115.145638 40.216022,116.982468 
z"/>
<path fill="#4822AB" opacity="1.000000" stroke="none" 
	d="
M211.819092,155.922607 
	C209.419586,156.332336 206.683273,156.511063 203.541138,156.592941 
	C205.917633,156.227921 208.699966,155.959763 211.819092,155.922607 
z"/>
<path fill="#4822AB" opacity="1.000000" stroke="none" 
	d="
M192.978287,155.174042 
	C194.109512,154.556641 195.240723,153.939224 196.686874,153.253540 
	C196.991943,153.938110 196.982056,154.690964 196.958282,155.822815 
	C195.843597,156.202423 194.742828,156.203064 193.288269,155.929245 
	C192.934509,155.654800 192.978287,155.174042 192.978287,155.174042 
z"/>
<path fill="#4822AB" opacity="1.000000" stroke="none" 
	d="
M215.879517,155.932373 
	C215.828583,156.055130 215.640991,156.092484 215.164795,156.136780 
	C215.115555,155.868301 215.404449,155.769394 215.879517,155.932373 
z"/>
<path fill="#633DC2" opacity="1.000000" stroke="none" 
	d="
M191.189484,156.877838 
	C190.984177,157.027908 190.928207,156.562592 190.900848,156.330292 
	C191.049835,156.013565 191.226196,155.929153 191.694275,155.876236 
	C191.788940,156.181076 191.591873,156.454407 191.189484,156.877838 
z"/>
<path fill="#633DC2" opacity="1.000000" stroke="none" 
	d="
M192.733093,155.177856 
	C192.978287,155.174042 192.934509,155.654800 192.876526,155.890656 
	C192.818527,156.126511 192.348053,156.022949 192.117340,155.950378 
	C191.915787,155.497772 192.116211,155.265717 192.733093,155.177856 
z"/>
<path fill="#907ACC" opacity="1.000000" stroke="none" 
	d="
M79.665512,157.317566 
	C72.070534,157.637299 64.013779,157.925690 55.955223,157.990799 
	C49.855019,158.040100 43.752514,157.804474 37.272491,157.520004 
	C50.996960,157.292984 65.099968,157.241608 79.665512,157.317566 
z"/>
<path fill="#35148F" opacity="1.000000" stroke="none" 
	d="
M107.464378,160.015747 
	C108.160278,158.741013 109.246323,156.459137 110.500137,156.362900 
	C122.320671,155.455505 128.842743,146.530579 136.676300,139.577103 
	C137.169937,139.138931 137.656769,138.693130 138.529358,138.198669 
	C138.911957,138.146439 139.022339,138.356079 139.093292,138.571930 
	C139.612045,139.173737 140.059860,139.559723 140.687592,140.234314 
	C141.204010,140.823959 141.540497,141.124969 142.017944,141.653198 
	C142.442673,142.541504 142.726425,143.202576 142.660706,143.889832 
	C139.813660,146.563934 137.316071,149.211884 134.843643,151.901276 
	C134.868805,151.942719 134.954285,151.896942 134.653580,151.793640 
	C133.966171,152.164566 133.579468,152.638779 133.138412,153.282074 
	C133.084061,153.451157 133.139206,153.802048 133.139206,153.802048 
	C128.114273,155.829681 123.089333,157.857330 117.780075,160.077393 
	C114.307953,160.187393 111.120148,160.104965 107.464378,160.015747 
z"/>
<path fill="#683ED1" opacity="1.000000" stroke="none" 
	d="
M154.017990,141.926910 
	C156.089630,141.576187 158.161285,141.225479 160.636932,140.841385 
	C160.193024,146.250137 155.877213,150.243896 150.730530,150.336548 
	C148.766525,150.371902 146.802078,150.382889 144.341263,150.083023 
	C144.442917,148.268951 145.041138,146.776810 146.022858,145.162079 
	C148.600723,144.360840 150.795059,143.682190 153.162369,143.041199 
	C153.562881,142.694855 153.790436,142.310883 154.017990,141.926910 
z"/>
<path fill="#ADA4CA" opacity="1.000000" stroke="none" 
	d="
M145.639343,145.284668 
	C145.041138,146.776810 144.442917,148.268951 143.878754,150.081726 
	C143.404068,150.532715 142.895325,150.663040 142.021957,150.469604 
	C139.377731,150.717163 137.098099,151.288498 134.818481,151.859833 
	C137.316071,149.211884 139.813660,146.563934 142.819809,144.162094 
	C144.098709,144.700363 144.869019,144.992508 145.639343,145.284668 
z"/>
<path fill="#7650D0" opacity="1.000000" stroke="none" 
	d="
M134.843643,151.901276 
	C137.098099,151.288498 139.377731,150.717163 141.758759,150.402069 
	C141.351990,152.314346 140.843826,153.970413 140.188202,156.107010 
	C138.006516,155.494949 135.843689,154.888168 133.410034,154.041718 
	C133.139206,153.802048 133.084061,153.451157 133.430038,153.235199 
	C134.168777,152.645142 134.561539,152.271042 134.954285,151.896942 
	C134.954285,151.896942 134.868805,151.942719 134.843643,151.901276 
z"/>
<path fill="#9375DF" opacity="1.000000" stroke="none" 
	d="
M120.479935,165.929840 
	C120.947716,166.710663 120.952995,167.526321 120.942070,168.749695 
	C120.434517,169.018295 119.943161,168.879196 119.278870,168.551773 
	C116.026901,167.911346 112.957489,167.370514 109.865776,167.035614 
	C107.462921,166.775330 105.032249,166.771835 102.340492,166.339676 
	C108.050507,166.004974 114.033974,165.984818 120.479935,165.929840 
z"/>
<path fill="#9375DF" opacity="1.000000" stroke="none" 
	d="
M124.588776,165.027908 
	C123.843971,165.369980 122.739937,165.671188 121.278656,165.961670 
	C122.024117,165.629639 123.126823,165.308350 124.588776,165.027908 
z"/>
<path fill="#A181F3" opacity="1.000000" stroke="none" 
	d="
M47.277084,109.043312 
	C47.125084,107.377373 46.973083,105.711441 46.817566,103.629379 
	C51.841743,99.678391 56.619930,98.162628 61.612854,103.627129 
	C63.658871,105.866394 66.708595,107.188568 69.488892,109.266907 
	C65.305397,114.739578 60.934734,119.873283 56.193779,124.970413 
	C55.339645,124.832947 54.855801,124.732048 54.254978,124.310081 
	C52.101910,121.004562 50.065819,118.020111 47.984428,114.646408 
	C47.718449,112.519211 47.497765,110.781258 47.277084,109.043312 
z"/>
<path fill="#F2F0F9" opacity="1.000000" stroke="none" 
	d="
M56.564068,125.006989 
	C60.934734,119.873283 65.305397,114.739578 69.834152,109.316574 
	C70.813751,108.376297 71.635262,107.725311 72.775055,107.047745 
	C75.141968,106.429008 77.190598,105.836845 79.738739,105.477524 
	C83.252090,106.458130 86.265938,107.205894 89.292038,108.284744 
	C89.239052,109.052696 89.173813,109.489578 88.819260,110.117836 
	C85.729706,112.992210 82.929474,115.675194 79.666840,118.257721 
	C71.624626,117.660217 64.109085,117.340691 59.546013,125.230827 
	C59.388515,125.503159 59.201511,125.758415 58.743877,126.117752 
	C57.827682,125.811584 57.195873,125.409286 56.564068,125.006989 
z"/>
<path fill="#9252F5" opacity="1.000000" stroke="none" 
	d="
M140.988617,101.985901 
	C144.163620,100.148331 147.338623,98.310753 150.758545,96.237961 
	C157.988907,94.323799 164.915375,91.402275 172.678314,95.212418 
	C173.399094,95.643700 173.613510,95.838287 173.821594,96.395302 
	C172.853500,102.847389 171.912323,108.914391 170.815567,115.282257 
	C167.105804,120.062164 163.551605,124.541214 159.724533,128.863525 
	C158.078232,127.805687 156.704803,126.904579 155.142059,125.711472 
	C153.092300,123.339371 151.231873,121.259277 149.193497,118.980217 
	C147.426956,120.613281 145.863113,122.058975 144.056824,123.187897 
	C142.881088,120.326874 141.407013,117.838715 141.136002,115.225769 
	C140.682617,110.854408 140.997238,106.403397 140.988617,101.985901 
z"/>
<path fill="#F3F0F9" opacity="1.000000" stroke="none" 
	d="
M170.971146,114.981400 
	C171.912323,108.914391 172.853500,102.847389 173.951904,96.095001 
	C174.172043,94.981010 174.234985,94.552399 174.297943,94.123779 
	C174.297943,94.123779 174.154175,94.060608 174.336609,94.014755 
	C174.716904,93.691452 174.788513,93.384598 174.733887,93.048325 
	C174.833847,91.659790 174.933807,90.271255 175.362640,88.257263 
	C175.494232,86.072670 175.296967,84.513542 175.099716,82.954407 
	C174.996780,80.776291 174.893829,78.598175 174.463745,75.794678 
	C173.469299,73.099899 172.801987,71.030518 172.134659,68.961136 
	C172.271149,68.675308 172.365891,68.358826 172.550125,68.108070 
	C179.664932,58.424286 179.082825,61.024807 184.127258,69.390053 
	C186.793564,86.874748 181.307068,101.486702 171.742645,115.082253 
	C171.311127,115.071602 171.141144,115.026505 170.971146,114.981400 
z"/>
<path fill="#7649E2" opacity="1.000000" stroke="none" 
	d="
M171.779114,68.969131 
	C172.801987,71.030518 173.469299,73.099899 174.123352,75.565552 
	C172.788391,73.880028 171.466705,71.798241 170.073120,69.358231 
	C170.475327,68.992378 170.949448,68.984749 171.779114,68.969131 
z"/>
<path fill="#7649E2" opacity="1.000000" stroke="none" 
	d="
M174.869736,83.174774 
	C175.296967,84.513542 175.494232,86.072670 175.391052,87.834061 
	C174.940338,86.489258 174.790039,84.942207 174.869736,83.174774 
z"/>
<path fill="#7649E2" opacity="1.000000" stroke="none" 
	d="
M174.045593,94.248184 
	C174.234985,94.552399 174.172043,94.981010 173.978790,95.709930 
	C173.613510,95.838287 173.399094,95.643700 173.067444,95.258736 
	C173.217514,94.851540 173.505386,94.612061 174.045593,94.248184 
z"/>
<path fill="#7649E2" opacity="1.000000" stroke="none" 
	d="
M174.605103,93.227921 
	C174.788513,93.384598 174.716904,93.691452 174.306519,94.087265 
	C174.195175,93.927017 174.322617,93.660973 174.605103,93.227921 
z"/>
<path fill="#E4DEF3" opacity="1.000000" stroke="none" 
	d="
M46.962952,108.884033 
	C47.497765,110.781258 47.718449,112.519211 47.713211,114.463913 
	C46.361687,113.342194 45.236084,112.013725 44.110481,110.685265 
	C43.869404,110.230911 43.628334,109.776558 43.115425,108.892487 
	C42.592464,108.196175 42.341343,107.929588 42.090218,107.662994 
	C42.090221,107.662994 42.143280,107.311317 42.184071,107.138184 
	C43.699512,107.551613 45.174168,108.138184 46.962952,108.884033 
z"/>
<path fill="#6940D3" opacity="1.000000" stroke="none" 
	d="
M41.014561,105.645081 
	C40.829357,105.634003 40.572517,105.299164 40.174843,104.678635 
	C40.336979,104.702408 40.639954,105.011864 41.014561,105.645081 
z"/>
<path fill="#7D47EF" opacity="1.000000" stroke="none" 
	d="
M89.108574,109.926453 
	C89.173813,109.489578 89.239052,109.052696 89.495605,108.178284 
	C90.048225,107.462006 90.409531,107.183258 90.770836,106.904510 
	C94.611748,108.279839 98.452652,109.655167 102.726898,111.043640 
	C102.387245,112.222343 101.614265,113.387924 100.077271,115.705544 
	C107.325096,114.514023 113.333214,113.526314 119.335449,112.539566 
	C121.730537,113.258774 124.467552,114.080658 127.616028,115.335739 
	C129.240417,118.199898 130.523422,120.599113 131.643997,123.071922 
	C132.533157,125.034065 133.223434,127.086334 133.702209,128.927185 
	C131.962799,127.021423 130.523224,125.287064 128.782623,123.190056 
	C124.422951,127.762840 120.382027,131.843964 116.553337,136.115341 
	C115.439842,137.357559 114.933029,139.143600 114.148117,140.680359 
	C113.643364,141.242630 113.138603,141.804901 112.224960,142.182297 
	C110.286644,139.487518 112.498665,135.007217 107.802094,133.829102 
	C107.527321,132.218018 107.512367,130.688797 106.749245,129.807175 
	C100.951393,123.108971 95.007179,116.537453 89.108574,109.926453 
z"/>
<path fill="#A27CF3" opacity="1.000000" stroke="none" 
	d="
M90.828819,106.502022 
	C90.409531,107.183258 90.048225,107.462006 89.483353,107.847214 
	C86.265938,107.205894 83.252090,106.458130 80.067825,105.353683 
	C84.051987,101.082741 88.206558,97.168480 92.664078,93.116821 
	C92.273621,97.352791 91.580215,101.726158 90.828819,106.502022 
z"/>
<path fill="#7D47EF" opacity="1.000000" stroke="none" 
	d="
M106.892090,107.195145 
	C106.901405,107.334381 106.710754,107.632652 106.263870,108.021858 
	C106.235809,107.859917 106.463966,107.607048 106.892090,107.195145 
z"/>
<path fill="#7D47EF" opacity="1.000000" stroke="none" 
	d="
M105.910759,108.199051 
	C105.931747,108.336578 105.758240,108.677299 105.339188,109.176964 
	C105.301178,109.024681 105.508720,108.713463 105.910759,108.199051 
z"/>
<path fill="#8A50EE" opacity="1.000000" stroke="none" 
	d="
M140.654602,102.051804 
	C140.997238,106.403397 140.682617,110.854408 141.136002,115.225769 
	C141.407013,117.838715 142.881088,120.326874 143.907562,123.436737 
	C143.315506,124.659790 142.630280,125.317223 141.609436,126.057228 
	C141.051865,126.201614 140.829910,126.263428 140.360107,126.105316 
	C136.442871,121.521416 132.773483,117.157417 129.104095,112.793427 
	C129.077362,112.508331 128.997391,112.239037 128.816803,111.779358 
	C130.021301,109.883759 131.273178,108.194344 133.056076,106.115837 
	C134.737335,104.822762 135.887558,103.918777 137.037796,103.014786 
	C138.132050,102.715759 139.226318,102.416725 140.654602,102.051804 
z"/>
<path fill="#F0ECF8" opacity="1.000000" stroke="none" 
	d="
M128.966431,113.075584 
	C132.773483,117.157417 136.442871,121.521416 140.485504,126.413361 
	C140.868118,127.587875 140.877487,128.234436 140.452942,128.864578 
	C137.992950,128.885040 135.966843,128.921921 133.949554,128.996582 
	C133.958374,129.034378 134.002014,129.098587 134.002014,129.098587 
	C133.223434,127.086334 132.533157,125.034065 131.643997,123.071922 
	C130.523422,120.599113 129.240417,118.199898 128.003937,115.404289 
	C128.263184,114.479004 128.545975,113.918373 128.966431,113.075584 
z"/>
<path fill="#F0ECF8" opacity="1.000000" stroke="none" 
	d="
M115.539871,108.313995 
	C116.189926,108.565720 116.606224,108.898888 117.022514,109.232056 
	C116.603737,109.403145 116.184952,109.574226 115.766167,109.745300 
	C115.612816,109.295349 115.459465,108.845390 115.539871,108.313995 
z"/>
<path fill="#7649E2" opacity="1.000000" stroke="none" 
	d="
M136.705902,102.952652 
	C135.887558,103.918777 134.737335,104.822762 133.302887,105.872307 
	C131.310287,101.942474 133.725113,102.290924 136.705902,102.952652 
z"/>
<path fill="#683CD8" opacity="1.000000" stroke="none" 
	d="
M172.004181,115.047813 
	C181.307068,101.486702 186.793564,86.874748 184.330627,69.633804 
	C187.211090,69.119751 190.144562,69.060440 193.550888,69.460907 
	C194.387695,74.295219 194.751663,78.669754 195.115631,83.044281 
	C195.109863,83.487480 195.104111,83.930679 194.773285,84.855484 
	C194.345657,86.243423 194.243103,87.149757 194.140564,88.056091 
	C194.088882,88.493080 194.037201,88.930077 193.558762,89.860748 
	C192.834702,91.463989 192.537384,92.573555 192.240067,93.683113 
	C192.279327,93.999504 192.230118,94.301483 191.674652,94.938087 
	C190.832657,96.513222 190.408463,97.739311 189.984253,98.965408 
	C189.984253,98.965408 190.009674,98.990906 189.667999,99.121735 
	C188.585236,100.917427 187.844131,102.582291 187.103027,104.247162 
	C187.103043,104.247162 187.020874,104.683212 186.730438,104.997498 
	C186.252960,105.521507 186.117691,105.760521 186.034195,106.028831 
	C186.034195,106.028831 186.000000,106.000000 185.824524,106.219719 
	C185.475479,106.770683 185.301926,107.101929 185.128372,107.433182 
	C184.919235,107.875191 184.710114,108.317200 184.093597,109.095016 
	C183.499786,109.754639 183.313370,110.078461 183.126953,110.402283 
	C182.888046,110.840012 182.649139,111.277740 182.016876,112.029861 
	C181.439850,112.622421 181.256195,112.900574 181.072556,113.178734 
	C181.072556,113.178734 181.045685,113.052963 180.894135,113.251572 
	C180.538803,113.792900 180.335037,114.135628 180.131256,114.478348 
	C179.882248,114.893105 179.633240,115.307861 178.993347,116.017868 
	C178.369110,116.546539 178.181549,116.812294 178.039780,117.110382 
	C178.039780,117.110382 178.029648,117.032249 177.864883,117.204742 
	C177.500412,117.673347 177.300705,117.969467 177.100998,118.265587 
	C176.306870,119.144478 175.512756,120.023369 174.196472,120.723846 
	C173.117615,118.712891 172.560898,116.880356 172.004181,115.047813 
z"/>
<path fill="#6F47D6" opacity="1.000000" stroke="none" 
	d="
M195.271606,82.668472 
	C194.751663,78.669754 194.387695,74.295219 194.026428,69.456604 
	C194.224747,69.004906 194.420395,69.017296 194.909500,69.049362 
	C195.277847,73.476913 195.352722,77.884781 195.271606,82.668472 
z"/>
<path fill="#EDEAF5" opacity="1.000000" stroke="none" 
	d="
M100.780121,138.108719 
	C95.839546,133.124695 89.481850,131.252487 82.483650,129.460449 
	C79.770927,128.265869 77.439240,127.560898 75.258698,126.635742 
	C75.940033,125.937477 76.470215,125.459373 77.424561,125.053825 
	C80.815918,125.305634 83.672760,125.646049 85.871819,122.639244 
	C86.364525,121.965553 89.492188,122.213943 90.487350,123.086472 
	C94.829979,126.893959 98.833725,131.087952 103.003761,135.431030 
	C102.291374,136.516525 101.535751,137.312622 100.780121,138.108719 
z"/>
<path fill="#EBE9F4" opacity="1.000000" stroke="none" 
	d="
M114.480042,140.745087 
	C114.933029,139.143600 115.439842,137.357559 116.553337,136.115341 
	C120.382027,131.843964 124.422951,127.762840 128.782623,123.190056 
	C130.523224,125.287064 131.962799,127.021423 133.702209,128.927185 
	C134.002014,129.098587 133.958374,129.034378 134.051682,129.329010 
	C135.458145,131.469681 136.771317,133.315689 138.084473,135.161713 
	C136.684723,134.530487 134.900391,134.249069 133.952423,133.206894 
	C130.044342,128.910477 128.006516,128.628220 123.740028,132.476837 
	C120.717690,135.203156 117.784798,138.028595 114.480042,140.745087 
z"/>
<path fill="#3F2390" opacity="1.000000" stroke="none" 
	d="
M75.107552,126.855927 
	C77.439240,127.560898 79.770927,128.265869 82.099197,129.368607 
	C81.592445,130.425674 81.089096,131.084991 80.320930,131.595901 
	C79.368660,131.084839 78.377922,130.228561 78.040619,130.435791 
	C74.629311,132.531738 71.324829,134.801575 67.990372,137.022583 
	C68.305870,134.253311 68.621376,131.484055 69.282158,128.117737 
	C71.454140,127.299103 73.280846,127.077515 75.107552,126.855927 
z"/>
<path fill="#351984" opacity="1.000000" stroke="none" 
	d="
M107.715408,134.210892 
	C112.498665,135.007217 110.286644,139.487518 111.978027,142.326340 
	C111.232735,144.237427 110.325500,145.819611 109.418274,147.401794 
	C108.293442,146.434952 107.168594,145.468094 105.969803,143.747467 
	C105.583839,140.354156 105.271828,137.714615 105.226448,134.950806 
	C106.233856,134.621323 106.974632,134.416107 107.715408,134.210892 
z"/>
<path fill="#794FDD" opacity="1.000000" stroke="none" 
	d="
M138.150696,135.451202 
	C136.771317,133.315689 135.458145,131.469681 134.042877,129.291229 
	C135.966843,128.921921 137.992950,128.885040 140.693878,129.102219 
	C142.581253,131.285797 143.793823,133.215332 144.742722,135.328186 
	C143.611694,137.483017 142.744339,139.454498 141.876968,141.425995 
	C141.540497,141.124969 141.204010,140.823959 140.715393,139.968338 
	C140.049606,139.061188 139.535965,138.708633 139.022339,138.356079 
	C139.022339,138.356079 138.911957,138.146439 138.820389,138.069794 
	C138.558182,137.242340 138.387543,136.491516 138.150696,135.451202 
z"/>
<path fill="#44259D" opacity="1.000000" stroke="none" 
	d="
M67.991493,137.350128 
	C71.324829,134.801575 74.629311,132.531738 78.040619,130.435791 
	C78.377922,130.228561 79.368660,131.084839 80.018105,131.708130 
	C76.237053,134.304459 72.494011,136.640167 68.371506,138.982010 
	C67.992233,138.551315 67.992424,138.114502 67.991493,137.350128 
z"/>
<path fill="#D5CDE5" opacity="1.000000" stroke="none" 
	d="
M104.959816,135.075073 
	C105.271828,137.714615 105.583839,140.354156 105.882271,143.408310 
	C104.250298,142.123947 102.631920,140.424973 100.896835,138.417358 
	C101.535751,137.312622 102.291374,136.516525 103.330597,135.346802 
	C104.062737,135.007141 104.511276,135.041107 104.959816,135.075073 
z"/>
<path fill="#6940D3" opacity="1.000000" stroke="none" 
	d="
M44.066818,111.078621 
	C45.236084,112.013725 46.361687,113.342194 47.758507,114.853165 
	C50.065819,118.020111 52.101910,121.004562 53.957809,124.524223 
	C52.832565,126.077789 51.887520,127.096146 50.942474,128.114502 
	C47.458977,124.600189 43.975483,121.085876 40.354004,117.277016 
	C41.485065,115.145638 42.754108,113.308807 44.066818,111.078621 
z"/>
<path fill="#6236CB" opacity="1.000000" stroke="none" 
	d="
M51.097015,128.407928 
	C51.887520,127.096146 52.832565,126.077789 54.074783,124.845291 
	C54.855801,124.732048 55.339645,124.832947 56.193779,124.970413 
	C57.195873,125.409286 57.827682,125.811584 58.729576,126.490082 
	C60.359753,128.946228 61.719849,131.126175 63.079945,133.306107 
	C62.474251,134.353683 61.868561,135.401276 61.113602,136.715149 
	C57.726746,134.221405 54.489151,131.461380 51.097015,128.407928 
z"/>
<path fill="#7243E3" opacity="1.000000" stroke="none" 
	d="
M63.343872,133.091583 
	C61.719849,131.126175 60.359753,128.946228 59.013962,126.393959 
	C59.201511,125.758415 59.388515,125.503159 59.546013,125.230827 
	C64.109085,117.340691 71.624626,117.660217 79.588531,118.582176 
	C78.981888,120.998497 77.991142,122.989883 77.000389,124.981270 
	C76.470215,125.459373 75.940033,125.937477 75.258698,126.635750 
	C73.280846,127.077515 71.454140,127.299103 69.285278,127.699142 
	C67.164673,129.544083 65.386238,131.210587 63.343872,133.091583 
z"/>
<path fill="#7446DE" opacity="1.000000" stroke="none" 
	d="
M171.742645,115.082253 
	C172.560898,116.880356 173.117615,118.712891 173.908905,120.815353 
	C170.346588,124.980392 166.549667,128.875519 162.102158,132.893127 
	C160.599304,132.639679 159.747040,132.263702 158.968307,131.589661 
	C159.360367,130.534470 159.678879,129.777359 159.997406,129.020264 
	C163.551605,124.541214 167.105804,120.062164 170.815567,115.282257 
	C171.141144,115.026505 171.311127,115.071602 171.742645,115.082253 
z"/>
<path fill="#8154E2" opacity="1.000000" stroke="none" 
	d="
M158.894775,131.887741 
	C159.747040,132.263702 160.599304,132.639679 161.807175,133.046661 
	C159.527039,135.820786 156.891296,138.563889 154.136780,141.616943 
	C153.790436,142.310883 153.562881,142.694855 153.112793,142.706329 
	C151.879745,140.614883 150.869247,138.895950 150.243622,137.116684 
	C153.383911,135.333481 156.139343,133.610611 158.894775,131.887741 
z"/>
<path fill="#6F47D6" opacity="1.000000" stroke="none" 
	d="
M187.362396,104.032013 
	C187.844131,102.582291 188.585236,100.917427 189.650208,99.121849 
	C189.189972,100.599716 188.405869,102.208298 187.362396,104.032013 
z"/>
<path fill="#6F47D6" opacity="1.000000" stroke="none" 
	d="
M190.196655,98.728745 
	C190.408463,97.739311 190.832657,96.513222 191.553833,95.136047 
	C191.370239,96.154015 190.889648,97.323051 190.196655,98.728745 
z"/>
<path fill="#6F47D6" opacity="1.000000" stroke="none" 
	d="
M194.329224,87.794083 
	C194.243103,87.149757 194.345657,86.243423 194.669312,85.173157 
	C194.766251,85.850166 194.642075,86.691124 194.329224,87.794083 
z"/>
<path fill="#6F47D6" opacity="1.000000" stroke="none" 
	d="
M192.479736,93.438393 
	C192.537384,92.573555 192.834702,91.463989 193.431458,90.166840 
	C193.393738,91.050728 193.056564,92.122200 192.479736,93.438393 
z"/>
<path fill="#6F47D6" opacity="1.000000" stroke="none" 
	d="
M183.365234,110.236755 
	C183.313370,110.078461 183.499786,109.754639 183.888000,109.235443 
	C183.927689,109.383789 183.765594,109.727516 183.365234,110.236755 
z"/>
<path fill="#6F47D6" opacity="1.000000" stroke="none" 
	d="
M186.215729,105.912079 
	C186.117691,105.760521 186.252960,105.521507 186.592728,105.171448 
	C186.752045,105.341751 186.635971,105.596489 186.215729,105.912079 
z"/>
<path fill="#6F47D6" opacity="1.000000" stroke="none" 
	d="
M185.362091,107.259018 
	C185.301926,107.101929 185.475479,106.770683 185.841125,106.234253 
	C185.887390,106.380989 185.741592,106.732925 185.362091,107.259018 
z"/>
<path fill="#6F47D6" opacity="1.000000" stroke="none" 
	d="
M181.307953,113.058731 
	C181.256195,112.900574 181.439850,112.622421 181.811417,112.179367 
	C181.847336,112.322548 181.695328,112.630638 181.307953,113.058731 
z"/>
<path fill="#6F47D6" opacity="1.000000" stroke="none" 
	d="
M180.389221,114.305359 
	C180.335037,114.135628 180.538803,113.792900 180.957199,113.239067 
	C180.996933,113.396095 180.822052,113.764229 180.389221,114.305359 
z"/>
<path fill="#6F47D6" opacity="1.000000" stroke="none" 
	d="
M178.272217,116.998016 
	C178.181549,116.812294 178.369110,116.546539 178.789032,116.155174 
	C178.818604,116.293373 178.661621,116.589516 178.272217,116.998016 
z"/>
<path fill="#6F47D6" opacity="1.000000" stroke="none" 
	d="
M177.345459,118.129288 
	C177.300705,117.969467 177.500412,117.673347 177.904022,117.200279 
	C177.935257,117.346550 177.762604,117.669769 177.345459,118.129288 
z"/>
<path fill="#6940D3" opacity="1.000000" stroke="none" 
	d="
M42.200035,107.909569 
	C42.341343,107.929588 42.592464,108.196175 42.906982,108.733307 
	C42.750202,108.721275 42.530029,108.438713 42.200035,107.909569 
z"/>
<path fill="#6239C5" opacity="1.000000" stroke="none" 
	d="
M149.858749,137.177017 
	C150.869247,138.895950 151.879745,140.614883 152.939819,142.668686 
	C150.795059,143.682190 148.600723,144.360840 146.022858,145.162079 
	C144.869019,144.992508 144.098709,144.700363 143.169281,144.135925 
	C142.726425,143.202576 142.442673,142.541504 142.017944,141.653198 
	C142.744339,139.454498 143.611694,137.483017 145.045578,135.459473 
	C147.027649,135.997299 148.443192,136.587158 149.858749,137.177017 
z"/>
<path fill="#381695" opacity="1.000000" stroke="none" 
	d="
M139.093292,138.571930 
	C139.535965,138.708633 140.049606,139.061188 140.535446,139.679718 
	C140.059860,139.559723 139.612045,139.173737 139.093292,138.571930 
z"/>
<path fill="#ADA4CA" opacity="1.000000" stroke="none" 
	d="
M134.653580,151.793640 
	C134.561539,152.271042 134.168777,152.645142 133.484390,153.066116 
	C133.579468,152.638779 133.966171,152.164566 134.653580,151.793640 
z"/>
<path fill="#502DB7" opacity="1.000000" stroke="none" 
	d="
M77.424561,125.053825 
	C77.991142,122.989883 78.981888,120.998497 80.050934,118.682648 
	C82.929474,115.675194 85.729706,112.992210 88.819260,110.117836 
	C95.007179,116.537453 100.951393,123.108971 106.749245,129.807175 
	C107.512367,130.688797 107.527321,132.218018 107.802094,133.829102 
	C106.974632,134.416107 106.233856,134.621323 105.226448,134.950806 
	C104.511276,135.041107 104.062737,135.007141 103.287354,135.057404 
	C98.833725,131.087952 94.829979,126.893959 90.487350,123.086472 
	C89.492188,122.213943 86.364525,121.965553 85.871819,122.639244 
	C83.672760,125.646049 80.815918,125.305634 77.424561,125.053825 
z"/>
<path fill="#9D7AF0" opacity="1.000000" stroke="none" 
	d="
M150.243622,137.116684 
	C148.443192,136.587158 147.027649,135.997299 145.309235,135.276154 
	C143.793823,133.215332 142.581253,131.285797 141.127777,129.118622 
	C140.877487,128.234436 140.868118,127.587875 140.733353,126.633278 
	C140.829910,126.263428 141.051865,126.201614 141.880615,126.301369 
	C146.768723,126.309784 151.050064,126.156631 155.331390,126.003479 
	C156.704803,126.904579 158.078232,127.805687 159.724533,128.863525 
	C159.678879,129.777359 159.360367,130.534470 158.968307,131.589661 
	C156.139343,133.610611 153.383911,135.333481 150.243622,137.116684 
z"/>
<path fill="#F0ECF9" opacity="1.000000" stroke="none" 
	d="
M155.142059,125.711472 
	C151.050064,126.156631 146.768723,126.309784 142.216217,126.218796 
	C142.630280,125.317223 143.315506,124.659790 144.149994,123.753510 
	C145.863113,122.058975 147.426956,120.613281 149.193497,118.980217 
	C151.231873,121.259277 153.092300,123.339371 155.142059,125.711472 
z"/>
</svg>