<?xml version="1.0" encoding="UTF-8" standalone="no"?>
<!-- Created with Inkscape (http://www.inkscape.org/) -->

<svg
   version="1.1"
   id="svg1788"
   xml:space="preserve"
   width="682.66669"
   height="682.66669"
   viewBox="0 0 682.66669 682.66669"
   xmlns="http://www.w3.org/2000/svg"
   xmlns:svg="http://www.w3.org/2000/svg"><defs
     id="defs1792"><clipPath
       clipPathUnits="userSpaceOnUse"
       id="clipPath1802"><path
         d="M 0,512 H 512 V 0 H 0 Z"
         id="path1800" /></clipPath></defs><g
     id="g1794"
     transform="matrix(1.3333333,0,0,-1.3333333,0,682.66667)"><g
       id="g1796"><g
         id="g1798"
         clip-path="url(#clipPath1802)"><g
           id="g1804"
           transform="translate(17.1377,225.394)"><path
             d="m 0,0 c -14.438,111.747 51.504,221.757 162.39,258.9 106.633,35.719 220.679,-7.389 278.88,-97.809"
             style="fill:none;stroke:#000000;stroke-width:30;stroke-linecap:butt;stroke-linejoin:miter;stroke-miterlimit:10;stroke-dasharray:none;stroke-opacity:1"
             id="path1806" /></g><g
           id="g1808"
           transform="translate(495.3857,282.2187)"><path
             d="m 0,0 c 12.186,-110.231 -53.475,-217.868 -162.913,-254.526 -109.055,-36.529 -227.687,9.482 -284.73,104.144"
             style="fill:none;stroke:#000000;stroke-width:30;stroke-linecap:butt;stroke-linejoin:miter;stroke-miterlimit:10;stroke-dasharray:none;stroke-opacity:1"
             id="path1810" /></g><g
           id="g1812"
           transform="translate(106.0195,131.8374)"><path
             d="M 0,0 H -65.214 V -68.909"
             style="fill:none;stroke:#000000;stroke-width:30;stroke-linecap:butt;stroke-linejoin:miter;stroke-miterlimit:10;stroke-dasharray:none;stroke-opacity:1"
             id="path1814" /></g><g
           id="g1816"
           transform="translate(400.0713,386.5059)"><path
             d="M 0,0 66.099,-0.022 V 65.129"
             style="fill:none;stroke:#000000;stroke-width:30;stroke-linecap:butt;stroke-linejoin:miter;stroke-miterlimit:10;stroke-dasharray:none;stroke-opacity:1"
             id="path1818" /></g><g
           id="g1820"
           transform="translate(353.165,258.2266)"><path
             d="m 0,0 c 0.597,3.137 0.921,6.372 0.921,9.683 0,28.465 -23.075,51.54 -51.54,51.54 -7.114,0 -13.892,-1.441 -20.057,-4.048 -5.291,18.51 -22.322,32.063 -42.53,32.063 -24.435,0 -44.242,-19.807 -44.242,-44.242 V 33.157 h -12.839 c -31.715,0 -57.425,-25.709 -57.425,-57.424 0,-31.715 25.71,-57.424 57.425,-57.424 H -7.841 c 22.767,0 41.223,18.456 41.223,41.222 C 33.382,-20.384 19.016,-3.663 0,0 Z"
             style="fill:none;stroke:#000000;stroke-width:30;stroke-linecap:butt;stroke-linejoin:miter;stroke-miterlimit:10;stroke-dasharray:none;stroke-opacity:1"
             id="path1822" /></g></g></g></g></svg>
