<svg id="Capa_1" fill="white" enable-background="new 0 0 512 512" height="512" viewBox="0 0 512 512" width="512" xmlns="http://www.w3.org/2000/svg"><g><path d="m165.636 412.694c-21.308 15.806-49.636 41.225-49.636 79.306 0 11.046 8.954 20 20 20s20-8.954 20-20c0-15.25 10.635-30.243 33.468-47.181 8.871-6.581 10.728-19.107 4.147-27.979-6.582-8.871-19.108-10.727-27.979-4.146z"/><path d="m376 0c-11.046 0-20 8.954-20 20 0 15.25-10.635 30.243-33.468 47.181-8.871 6.581-10.728 19.107-4.147 27.979 6.582 8.872 19.107 10.728 27.979 4.147 21.308-15.807 49.636-41.226 49.636-79.307 0-11.046-8.954-20-20-20z"/><path d="m116 256c0 75.688 75.261 115.929 141.662 151.433 15.435 8.253 30.607 16.367 44.241 24.567h-49.83c-11.046 0-20 8.954-20 20s8.954 20 20 20h97.632c4.042 6.417 6.295 13.057 6.295 20 0 11.046 8.954 20 20 20s20-8.954 20-20c0-29.926-17.573-53.125-40.866-71.913-16.878-13.614-37.382-25.59-59.446-37.612 20.625-11.965 40.508-24.693 56.896-39.287 26.707-23.784 43.416-51.857 43.416-87.188 0-75.688-75.261-115.929-141.662-151.433-15.435-8.254-30.606-16.367-44.241-24.567h65.903c11.046 0 20-8.954 20-20s-8.954-20-20-20h-113.705c-4.041-6.417-6.295-13.057-6.295-20 0-11.046-8.954-20-20-20s-20 8.954-20 20c0 29.976 17.623 53.166 40.866 71.913 16.878 13.614 37.382 25.59 59.446 37.612-20.625 11.965-40.508 24.693-56.896 39.287-26.707 23.784-43.416 51.857-43.416 87.188zm208.464-60h-135.309c18.602-15.821 43.174-29.827 68.773-44.05 24.846 13.635 48.619 27.868 66.536 44.05zm-136.928 120h135.309c-18.602 15.821-43.174 29.827-68.773 44.05-24.846-13.635-48.619-27.868-66.536-44.05zm-28.317-40c-2.088-6.35-3.219-13-3.219-20 0-7.054 1.16-13.697 3.302-20h193.479c2.088 6.35 3.219 13 3.219 20 0 7.054-1.16 13.697-3.302 20z"/></g></svg>